<svg width="35" height="37" viewBox="0 0 35 37" fill="none" xmlns="http://www.w3.org/2000/svg">
<g clip-path="url(#clip0)">
<path d="M31.7999 0.100014C19.4999 5.30001 10.2999 15.1 5.59986 27.6C4.89986 29.4 7.79986 30.2 8.49986 28.4C12.8999 16.7 21.7999 7.60001 33.2999 2.70001C35.0999 2.00001 33.5999 -0.599986 31.7999 0.100014Z" fill="black"/>
<path d="M3.73251e-06 23C0.300004 27 0.600004 31 0.900004 35C1 37 4 37 3.9 35C3.6 31 3.3 27 3 23C2.9 21.1 -0.0999963 21.1 3.73251e-06 23Z" fill="black"/>
<path d="M3.80007 36.8C7.60007 35.1 11.5001 33.5 15.3001 31.8C17.1001 31 15.5001 28.4 13.8001 29.2C10.0001 30.9 6.10007 32.5 2.30007 34.2C0.600065 35 2.10007 37.6 3.80007 36.8Z" fill="black"/>
</g>
<defs>
<clipPath id="clip0">
<rect width="34.1" height="36.9" fill="white"/>
</clipPath>
</defs>
</svg>
