<svg width="1424" height="653" viewBox="0 0 1424 653" fill="none" xmlns="http://www.w3.org/2000/svg" preserveAspectRatio="none">
<mask id="mask0" mask-type="alpha" maskUnits="userSpaceOnUse" x="-8" y="0" width="1435" height="635">
<path fill-rule="evenodd" clip-rule="evenodd" d="M-7.99902 0.000854492H1426.41V634.724H-7.99902V0.000854492Z" fill="white"/>
</mask>
<g mask="url(#mask0)">
<path fill-rule="evenodd" clip-rule="evenodd" d="M13.0511 634.724H419.474H815.823C815.823 634.724 1080.56 612.207 1178.27 612.207C1231.59 612.207 1419.94 634.724 1419.94 634.724C1423.51 634.724 1426.41 626.104 1426.41 615.472V412.466V33.3337C1426.41 14.9191 1421.4 0 1415.21 0H1267.31H1075.03H626.748C626.748 0 470.646 16.8244 415.602 16.8244C353.982 16.8244 160.09 0 160.09 0H5.50185C2.1776 0 -0.516892 8.02038 -0.516892 17.9152C-0.516892 17.9152 -7.99902 151.266 -7.99902 238.191C-7.99902 373.293 -0.516892 594.338 -0.516892 594.338C-0.516892 616.639 5.55863 634.724 13.0511 634.724Z" fill="black"/>
</g>
</svg>
