<svg width="148" height="148" viewBox="0 0 148 148" fill="none" xmlns="http://www.w3.org/2000/svg">
<path d="M33.2588 133.023C31.083 114.713 36.9726 96.4386 49.3854 82.872C50.6923 81.4606 48.4171 79.5027 47.1102 80.9141C34.169 95.0896 28.0389 114.19 30.2573 133.227C30.508 135.153 33.5094 134.949 33.2588 133.023Z" fill="black"/>
<path d="M48.418 83.7406C55.8944 69.996 64.4565 56.9308 74.1372 44.6392C78.8219 38.6539 83.8276 32.98 88.9607 27.3674C94.0655 21.9766 101.595 11.7101 110.132 13.6994C121.431 16.3109 115.711 31.1357 112.777 37.8851C109.626 44.9224 105.839 51.6531 101.763 58.1668C92.9273 71.9636 83.0722 85.2699 73.3728 98.4157C67.8862 105.742 62.2722 113.006 56.3372 119.959C51.6146 125.534 40.297 140.412 32.3755 131.108C31.1198 129.64 28.6474 131.354 29.9031 132.821C41.7853 146.778 58.2114 122.587 64.637 114.615C77.6107 98.4146 89.782 81.4361 101.222 64.184C106.354 56.4525 111.166 48.4095 114.991 39.9704C118.175 33.0275 121.995 24.2722 118.213 16.8025C109.279 -0.835808 89.8558 21.7559 83.0762 29.3227C68.4884 45.4524 56.0154 63.3843 45.6144 82.3916C44.7229 84.0814 47.4321 85.4634 48.418 83.7406Z" fill="black"/>
<path d="M45.6788 94.978C38.0119 102.432 39.7423 114.329 48.8378 119.725C50.4663 120.744 51.7539 118.068 50.1255 117.049C42.5923 112.483 41.7827 102.912 47.954 96.9359C49.3883 95.5858 47.0187 93.661 45.6788 94.978Z" fill="black"/>
<path d="M46.2507 97.2148C53.4677 101.786 49.8788 111.202 47.2518 117.314C46.4877 119.065 49.1639 120.353 49.928 118.602C53.3804 110.611 56.3838 100.129 47.5384 94.5386C45.8769 93.4253 44.6223 96.1958 46.2507 97.2148Z" fill="black"/>
<path d="M60.4253 72.6471C55.5434 82.3041 57.9862 93.2097 66.5629 99.8475C68.0356 101.027 69.9935 98.7517 68.5208 97.5722C60.9684 91.7412 58.8658 82.4117 63.0685 73.8404C63.96 72.1506 61.1894 70.896 60.4253 72.6471Z" fill="black"/>
<path d="M60.4732 73.6901C66.0437 80.2154 71.643 88.6378 64.8682 96.5209C63.5944 98.0266 65.8696 99.9845 67.1434 98.4788C74.8193 89.5384 69.4509 79.6576 62.9456 71.9763C61.6899 70.509 59.1844 72.1283 60.4732 73.6901Z" fill="black"/>
<path d="M78.1777 48.3098C73.1305 57.4948 74.2094 68.1366 80.9412 76.1623C82.1969 77.6297 84.6694 75.9159 83.4137 74.4485C77.3569 67.14 76.3634 57.9518 80.8539 49.5974C81.8729 47.969 79.1967 46.6813 78.1777 48.3098Z" fill="black"/>
<path d="M77.2632 50.5374C84.8913 57.1896 86.3098 67.2885 81.0642 75.9073C80.0453 77.5357 82.7215 78.8234 83.7404 77.195C89.7596 67.4575 87.7791 55.7541 79.2211 48.2622C77.8097 46.9553 75.8518 49.2305 77.2632 50.5374Z" fill="black"/>
<path d="M94.728 30.221C90.3552 38.0043 91.948 47.0885 98.5849 53.0283C99.9964 54.3352 101.954 52.0599 100.543 50.7531C94.9302 45.62 93.772 38.0789 97.4985 31.4756C98.3287 29.9133 95.6525 28.6256 94.728 30.221Z" fill="black"/>
<path d="M93.9498 31.0235C96.9896 33.3493 100.539 35.9203 101.234 40.0212C101.896 44.0277 99.2868 47.1668 96.8619 49.9235C95.588 51.4293 97.8633 53.3872 99.1371 51.8814C101.996 48.5488 104.817 44.8056 104.401 40.2894C103.975 35.1408 99.6839 31.6638 95.9077 28.7483C94.4349 27.5688 92.477 29.844 93.9498 31.0235Z" fill="black"/>
</svg>
