<svg width="175" height="47" viewBox="0 0 175 47" fill="none" xmlns="http://www.w3.org/2000/svg">
<path fill-rule="evenodd" clip-rule="evenodd" d="M173.881 46.0936C173.881 46.0936 158.415 45.1137 144.902 45.9012C131.868 46.6592 94.2247 46.0936 94.2247 46.0936C94.2247 46.0936 44.5611 45.5068 28.1417 45.5068C21.5205 45.5068 2.06208 46.0936 2.06208 46.0936C1.44422 46.0936 0.941505 45.7276 0.941505 45.279V34.4876C0.941505 34.4876 -0.208258 18.5874 0.033371 11.0712C0.130671 7.9578 0.941505 1.11223 0.941505 1.11223C0.941505 0.662396 1.44422 0.296387 2.06208 0.296387H79.3589H130.307C130.307 0.296387 150.002 0.740321 156.794 0.740321C164.227 0.740321 173.881 0.296387 173.881 0.296387C174.499 0.296387 175 0.662396 175 1.11223V8.31554V19.434C175 19.434 174.363 29.3953 174.363 33.1097C174.363 35.8572 175 45.279 175 45.279C175 45.7276 174.499 46.0936 173.881 46.0936Z" fill="white"/>
</svg>
