<svg width="175" height="47" viewBox="0 0 175 47" fill="none" xmlns="http://www.w3.org/2000/svg">
<path fill-rule="evenodd" clip-rule="evenodd" d="M173.881 46.0936C173.881 46.0936 158.415 45.1137 144.902 45.9012C131.868 46.6592 94.2247 46.0936 94.2247 46.0936C94.2247 46.0936 44.5611 45.5068 28.1417 45.5068C21.5205 45.5068 2.06208 46.0936 2.06208 46.0936C1.44422 46.0936 0.941505 45.7276 0.941505 45.279V34.4876C0.941505 34.4876 -0.208258 18.5874 0.033371 11.0712C0.130671 7.9578 0.941505 1.11223 0.941505 1.11223C0.941505 0.662396 1.44422 0.296387 2.06208 0.296387H79.3589H130.307C130.307 0.296387 150.002 0.740321 156.794 0.740321C164.227 0.740321 173.881 0.296387 173.881 0.296387C174.499 0.296387 175 0.662396 175 1.11223V8.31554V19.434C175 19.434 174.363 29.3953 174.363 33.1097C174.363 35.8572 175 45.279 175 45.279C175 45.7276 174.499 46.0936 173.881 46.0936Z" fill="white"/>
<path d="M62.3364 12.9524V15.7604H58.5924V20.8304H61.5304V23.7684H58.5924V29.3584H62.4924V32.2964H55.6544V12.9524H62.3364ZM64.07 12.9524H67.84L69.244 23.1704L70.674 12.9524H74.184V32.2964H71.428V19.7904L69.66 32.2964H68.49L66.696 19.7904V32.2964H64.07V12.9524ZM80.6151 28.6564H78.4571L78.0931 32.2964H75.4671L77.8331 12.9524H81.3171L83.8391 32.2964H81.0051L80.6151 28.6564ZM78.7691 25.7704H80.3031L79.5231 18.6204L78.7691 25.7704ZM88.0794 32.2964H85.1414V12.9524H88.0794V32.2964ZM92.9403 12.9524V29.3064H96.5283V32.2964H90.0023V12.9524H92.9403ZM101.424 12.9524H104.414V28.2664C104.414 28.6824 104.483 29.0204 104.622 29.2804C104.778 29.5231 105.021 29.6444 105.35 29.6444C105.697 29.6444 105.939 29.5231 106.078 29.2804C106.234 29.0377 106.312 28.6997 106.312 28.2664V12.9524H109.302V28.0844C109.302 29.4537 109.007 30.5371 108.418 31.3344C107.846 32.1317 106.91 32.5304 105.61 32.5304H105.09C103.79 32.5304 102.854 32.1404 102.282 31.3604C101.71 30.5804 101.424 29.4884 101.424 28.0844V12.9524ZM115.243 12.7704C116.456 12.7704 117.314 13.0477 117.817 13.6024C118.337 14.1397 118.597 14.9804 118.597 16.1244V19.2964H115.763V16.5144C115.763 16.1851 115.711 15.9164 115.607 15.7084C115.503 15.4831 115.278 15.3704 114.931 15.3704C114.584 15.3704 114.35 15.4831 114.229 15.7084C114.125 15.9337 114.073 16.2717 114.073 16.7224V17.0864C114.073 17.3637 114.09 17.6151 114.125 17.8404C114.16 18.0657 114.22 18.2911 114.307 18.5164C114.394 18.7244 114.515 18.9584 114.671 19.2184C114.827 19.4611 115.026 19.7384 115.269 20.0504L117.141 22.4684C117.47 22.9017 117.748 23.3004 117.973 23.6644C118.198 24.0111 118.372 24.3664 118.493 24.7304C118.632 25.0944 118.727 25.4931 118.779 25.9264C118.848 26.3424 118.883 26.8191 118.883 27.3564V27.9804C118.883 29.4017 118.571 30.5111 117.947 31.3084C117.34 32.1057 116.387 32.5044 115.087 32.5044H114.515C113.336 32.5044 112.444 32.1924 111.837 31.5684C111.23 30.9444 110.927 30.0344 110.927 28.8384V24.9644H113.839V28.3444C113.839 29.2457 114.16 29.6964 114.801 29.6964C115.148 29.6964 115.39 29.5751 115.529 29.3324C115.685 29.0724 115.763 28.6391 115.763 28.0324V27.5904C115.763 27.2437 115.746 26.9491 115.711 26.7064C115.694 26.4464 115.642 26.2037 115.555 25.9784C115.486 25.7357 115.364 25.4931 115.191 25.2504C115.035 24.9904 114.827 24.6871 114.567 24.3404L112.695 21.9484C112.383 21.5497 112.123 21.1684 111.915 20.8044C111.707 20.4231 111.542 20.0504 111.421 19.6864C111.3 19.3051 111.213 18.9151 111.161 18.5164C111.109 18.1004 111.083 17.6497 111.083 17.1644V16.5404C111.083 15.2404 111.395 14.2871 112.019 13.6804C112.643 13.0737 113.536 12.7704 114.697 12.7704H115.243Z" fill="black"/>
</svg>
