<?xml version="1.0" encoding="utf-8"?>
<!-- Generator: Adobe Illustrator 22.1.0, SVG Export Plug-In . SVG Version: 6.00 Build 0)  -->
<svg version="1.1" id="Layer_1" xmlns="http://www.w3.org/2000/svg" xmlns:xlink="http://www.w3.org/1999/xlink" x="0px" y="0px"
	 viewBox="0 0 556 83" style="enable-background:new 0 0 556 83;" xml:space="preserve" preserveAspectRatio="none">
<style type="text/css">
	.st0{fill:#FFFFFF;filter:url(#Adobe_OpacityMaskFilter);}
	.st1{mask:url(#mask0_1_);}
</style>
<defs>
	<filter id="Adobe_OpacityMaskFilter" filterUnits="userSpaceOnUse" x="0" y="0" width="555.8" height="82.6">
		<feColorMatrix  type="matrix" values="1 0 0 0 0  0 1 0 0 0  0 0 1 0 0  0 0 0 1 0"/>
	</filter>
</defs>
<mask maskUnits="userSpaceOnUse" x="0" y="0" width="555.8" height="82.6" id="mask0_1_">
	<path class="st0" d="M0,0h555.8v82.6H0V0z"/>
</mask>
<g class="st1">
	<path d="M8.2,82.6h157.5h153.6c0,0,102.6-2.9,140.4-2.9c20.7,0,93.6,2.9,93.6,2.9c1.4,0,2.5-1.1,2.5-2.5V53.7V4.3
		c0-2.4-1.9-4.3-4.3-4.3h-57.3h-74.5H245.9c0,0-60.5,2.2-81.8,2.2c-23.9,0-99-2.2-99-2.2H5.2C3.9,0,2.9,1,2.9,2.3
		C2.9,2.3,0,19.7,0,31c0,17.6,2.9,46.4,2.9,46.4C2.9,80.3,5.3,82.6,8.2,82.6z"/>
</g>
</svg>
