<svg width="108" height="39" viewBox="0 0 108 39" fill="none" xmlns="http://www.w3.org/2000/svg">
<path fill-rule="evenodd" clip-rule="evenodd" d="M107.224 38.7889C107.224 38.7889 97.6866 37.9589 89.3536 38.6259C81.3166 39.2679 58.1036 38.7889 58.1036 38.7889C58.1036 38.7889 27.4786 38.2919 17.3536 38.2919C13.2706 38.2919 1.27158 38.7889 1.27158 38.7889C0.890578 38.7889 0.580578 38.4789 0.580578 38.0989V28.9589C0.580578 28.9589 -0.128422 15.4919 0.0205782 9.12588C0.0805782 6.48888 0.580578 0.690878 0.580578 0.690878C0.580578 0.309878 0.890578 -0.00012207 1.27158 -0.00012207H48.9366H80.3536C80.3536 -0.00012207 92.4986 0.375878 96.6866 0.375878C101.271 0.375878 107.224 -0.00012207 107.224 -0.00012207C107.605 -0.00012207 107.914 0.309878 107.914 0.690878V6.79188V16.2089C107.914 16.2089 107.521 24.6459 107.521 27.7919C107.521 30.1189 107.914 38.0989 107.914 38.0989C107.914 38.4789 107.605 38.7889 107.224 38.7889Z" fill="black"/>
</svg>
