<svg width="171" height="85" viewBox="0 0 171 85" fill="none" xmlns="http://www.w3.org/2000/svg">
<path fill-rule="evenodd" clip-rule="evenodd" d="M123.843 54.5201C110.352 57.2697 96.6141 57.8055 82.874 57.5016C70.6314 56.6624 58.4189 55.3612 46.3184 53.457C44.6002 53.1853 40.3319 52.8492 38.8236 51.3268C34.5935 47.0616 41.7779 42.8543 44.2451 41.4385C48.4908 39.001 53.2576 37.6586 58.0244 36.679C68.8123 34.4621 79.9962 33.5951 90.9892 33.3013C101.627 33.0179 112.493 33.2433 123.043 34.7622C127.811 35.448 141.223 37.3511 141.502 44.2253C141.808 51.7589 129.123 53.4443 123.843 54.5201ZM131.145 32.5394C120.256 29.6137 108.362 29.4254 97.161 29.4258C85.3393 29.4264 73.4758 30.3123 61.7963 32.1675C53.2508 33.5259 44.1191 35.6995 37.4762 41.6144C33.2114 45.412 31.2649 50.9083 36.8301 54.5546C40.5456 56.989 45.6244 57.1753 49.87 57.7726C51.512 58.0034 53.1574 58.1988 54.8012 58.4118C54.923 59.2279 55.503 59.9753 56.5573 60.0388C65.4892 60.5802 74.4845 61.1143 83.4772 61.288C93.8602 62.0087 104.262 62.4088 114.673 62.4929C116.333 62.5066 116.907 60.7527 116.332 59.6273C119.918 59.1224 123.491 58.5034 127.046 57.7145C133.853 56.2028 143.391 54.1022 145.031 46.0075C146.726 37.6448 137.601 34.2751 131.145 32.5394Z" fill="black"/>
<mask id="mask0" mask-type="alpha" maskUnits="userSpaceOnUse" x="149" y="43" width="22" height="5">
<path fill-rule="evenodd" clip-rule="evenodd" d="M149.983 43.1061L170.073 43.5929L169.982 47.3841L149.892 46.8972L149.983 43.1061Z" fill="white"/>
</mask>
<g mask="url(#mask0)">
<path fill-rule="evenodd" clip-rule="evenodd" d="M168.242 43.5486L151.814 43.1505C149.376 43.0913 149.279 46.8824 151.723 46.9416L168.151 47.3397C170.591 47.3989 170.686 43.6078 168.242 43.5486Z" fill="black"/>
</g>
<path fill-rule="evenodd" clip-rule="evenodd" d="M152.621 32.4652C157.298 30.6983 161.479 28.1568 165.134 24.734C166.918 23.0639 164.302 20.3185 162.519 21.9887C159.367 24.9394 155.745 27.2567 151.701 28.7848C149.449 29.6368 150.334 33.3303 152.621 32.4652Z" fill="black"/>
<path fill-rule="evenodd" clip-rule="evenodd" d="M136.881 25.4509C139.785 20.6202 141.845 15.4404 143.007 9.9226C143.506 7.54739 139.878 6.43654 139.375 8.82556C138.278 14.0427 136.403 18.8844 133.655 23.4583C132.395 25.5534 135.623 27.546 136.881 25.4509Z" fill="black"/>
<path fill-rule="evenodd" clip-rule="evenodd" d="M116.979 19.5453L117.316 5.64458C117.375 3.20437 113.585 3.10871 113.525 5.55271L113.189 19.4534C113.129 21.8936 116.92 21.9893 116.979 19.5453Z" fill="black"/>
<mask id="mask1" mask-type="alpha" maskUnits="userSpaceOnUse" x="94" y="2" width="6" height="21">
<path fill-rule="evenodd" clip-rule="evenodd" d="M95.376 2.65808L99.8522 2.76656L99.3655 22.8495L94.8893 22.741L95.376 2.65808Z" fill="white"/>
</mask>
<g mask="url(#mask1)">
<path fill-rule="evenodd" clip-rule="evenodd" d="M98.7267 21.0046C99.0869 15.5344 99.4458 10.0641 99.8059 4.59516C99.9661 2.15735 96.1749 2.06927 96.0148 4.50329C95.6546 9.97226 95.2957 15.4425 94.9356 20.9128C94.7754 23.3506 98.5666 23.4374 98.7267 21.0046Z" fill="black"/>
</g>
<path fill-rule="evenodd" clip-rule="evenodd" d="M72.3005 23.3207C72.9556 25.6657 76.6405 24.7624 75.9807 22.4021C74.6183 17.5236 73.2547 12.6452 71.891 7.76668C71.2359 5.42293 67.551 6.32624 68.2107 8.68654C69.5744 13.565 70.9381 18.4435 72.3005 23.3207Z" fill="black"/>
<path fill-rule="evenodd" clip-rule="evenodd" d="M50.0261 27.73C51.0562 29.9424 54.3744 28.1034 53.3455 25.896C51.1376 21.1552 48.5332 16.6539 45.5237 12.3767C44.1339 10.4034 40.7962 12.2116 42.2031 14.2119C45.2138 18.4879 47.8182 22.9892 50.0261 27.73Z" fill="black"/>
<path fill-rule="evenodd" clip-rule="evenodd" d="M15.1373 27.1169C21.7796 30.0875 28.4219 33.0568 35.0654 36.0286C37.2895 37.0232 38.359 33.3798 36.1612 32.3959C29.5189 29.4266 22.8754 26.456 16.2331 23.4842C14.009 22.4896 12.9383 26.133 15.1373 27.1169Z" fill="black"/>
<path fill-rule="evenodd" clip-rule="evenodd" d="M21.402 50.1146C15.0705 49.7652 8.75675 49.8322 2.43416 50.3151C0.0246687 50.5007 -0.092545 54.294 2.34228 54.1064C8.66487 53.6236 14.9787 53.5566 21.3102 53.906C23.7486 54.041 23.8379 50.2495 21.402 50.1146Z" fill="black"/>
<path fill-rule="evenodd" clip-rule="evenodd" d="M37.0678 67.1279C34.087 68.9752 31.1075 70.8224 28.1279 72.6697C26.0611 73.9499 27.8784 77.2803 29.9605 75.9904C32.9414 74.1419 35.9209 72.2946 38.9017 70.4474C40.9685 69.166 39.15 65.8355 37.0678 67.1279Z" fill="black"/>
<path fill-rule="evenodd" clip-rule="evenodd" d="M62.2256 69.7083C61.3257 71.3631 60.427 73.0193 59.5258 74.6741C58.3637 76.8157 61.5864 78.8158 62.7537 76.668C63.6536 75.0119 64.5536 73.357 65.4523 71.7009C66.6156 69.5605 63.3917 67.5604 62.2256 69.7083Z" fill="black"/>
<path fill-rule="evenodd" clip-rule="evenodd" d="M97.4614 71.6795C96.7926 74.5426 96.4646 77.4354 96.5349 80.3771C96.5923 82.8088 100.383 82.9159 100.326 80.4689C100.264 77.8638 100.499 75.3152 101.093 72.7753C101.646 70.4064 98.0172 69.2993 97.4614 71.6795Z" fill="black"/>
<path fill-rule="evenodd" clip-rule="evenodd" d="M138.607 79.149C135.395 76.9191 132.703 74.0947 130.63 70.7784C129.343 68.7177 126.012 70.5349 127.31 72.6123C129.737 76.4936 132.854 79.7658 136.615 82.3757C138.625 83.7711 140.606 80.5365 138.607 79.149Z" fill="black"/>
<path fill-rule="evenodd" clip-rule="evenodd" d="M167.374 70.7798C162.917 68.3579 158.35 66.171 153.678 64.1941C151.431 63.2432 150.357 66.8826 152.582 67.8242C156.953 69.675 161.212 71.7419 165.381 74.0076C167.522 75.1709 169.522 71.947 167.374 70.7798Z" fill="black"/>
</svg>
