<svg width="107" height="139" viewBox="0 0 107 139" fill="none" xmlns="http://www.w3.org/2000/svg">
<path d="M6.43166 25.3519C9.19804 42.5111 13.5509 59.3819 19.5556 75.8389C19.8252 76.6975 20.6428 76.9649 21.436 76.8207C23.6903 76.3227 25.9147 75.7292 28.169 75.2311C30.0117 74.7575 29.1132 71.8952 27.2705 72.3689C25.0162 72.8669 22.7918 73.4604 20.5375 73.9585C21.1643 74.2857 21.7911 74.613 22.4179 74.9403C16.503 58.7695 12.1446 42.215 9.43814 25.2466C9.15529 23.344 6.14881 23.4493 6.43166 25.3519Z" fill="black"/>
<path d="M27.0515 74.0098C31.0294 87.0154 34.9774 99.9256 38.9554 112.931C40.6027 118.179 43.0418 135.965 52.4984 132.367C61.6688 128.86 54.5813 114.629 52.7842 108.904C48.5855 95.8634 44.4167 82.9177 40.2179 69.8765C39.6489 68.0638 36.7866 68.9623 37.3557 70.7751C40.3863 80.0952 43.2916 89.3499 46.3222 98.6701C47.8797 103.631 49.5325 108.563 51.09 113.524C52.1683 116.959 56.4448 125.573 52.7859 128.609C46.7195 133.657 43.9986 119.314 42.9858 115.754C41.4283 110.792 39.9962 105.897 38.4387 100.935C35.6289 91.6506 32.7236 82.3959 29.9138 73.1113C29.3447 71.2985 26.4824 72.197 27.0515 74.0098Z" fill="black"/>
<path d="M40.2151 71.8689C42.475 71.0546 44.7049 70.145 47.0602 69.3008C48.843 68.6363 47.9444 65.774 46.1616 66.4385C43.9017 67.2528 41.6718 68.1624 39.3165 69.0066C37.5337 69.6711 38.4323 72.5334 40.2151 71.8689Z" fill="black"/>
<path d="M8.25179 26.1431C8.72884 25.9934 9.20589 25.8436 9.77834 25.6639C9.15154 25.3366 8.52474 25.0093 7.89793 24.682C9.60515 30.1203 11.3778 35.4333 13.0851 40.8716C14.6425 45.8329 15.7362 51.9878 18.2178 56.5542C20.1791 60.1309 26.3419 60.3974 24.8798 55.4061C24.4061 53.5634 21.5439 54.462 22.0175 56.3047C21.6282 55.0644 20.4511 53.6521 19.9364 52.3463C19.4516 51.1359 19.1277 49.7703 18.7384 48.5299C17.8398 45.6677 16.9413 42.8054 16.0427 39.9431C14.3355 34.5048 12.5628 29.1919 10.8556 23.7535C10.616 22.9903 9.73849 22.5321 8.97521 22.7717C8.49817 22.9214 8.02112 23.0712 7.44867 23.2509C5.54048 23.8499 6.43902 26.7122 8.25179 26.1431Z" fill="black"/>
<path d="M25.959 55.1725C24.3771 49.7996 22.7952 44.4268 21.3387 39.1193C20.5356 36.2271 19.667 33.4602 18.8639 30.568C18.4745 29.3277 17.9598 28.0219 17.7912 26.8171C17.4296 23.9959 17.7946 24.8246 18.7808 26.2968C20.1675 28.377 20.6378 32.2122 21.3566 34.502C22.1353 36.9827 22.8841 39.3679 23.6629 41.8485C24.8609 45.6649 25.5075 52.0651 28.2676 55.1814C31.3982 58.8104 35.3001 54.5459 34.6989 50.9614C33.8992 46.0767 30.8263 40.9623 29.4241 36.1619C27.6925 30.312 26.5633 24.3778 25.9411 18.3892C24.987 18.6887 24.1283 18.9583 23.1742 19.2578C33.4069 34.4924 40.6708 51.2878 44.7208 69.1969C45.099 71.0696 47.9613 70.1711 47.583 68.2984C43.4732 50.1984 36.024 33.1467 25.7015 17.6259C24.9305 16.5054 22.7716 16.9735 22.9346 18.4945C24.1769 28.7953 26.6894 38.8022 30.633 48.3598C31.1777 49.761 31.8045 50.0883 30.7739 51.1455C29.4514 52.6088 29.2263 49.2206 28.8968 48.1711C28.1181 45.6905 27.3693 43.3053 26.5906 40.8246C24.8834 35.3863 23.4979 29.6374 21.409 24.3188C20.6846 22.3452 19.7095 20.2406 17.2755 20.1662C14.9669 20.1573 14.0804 22.0078 14.077 24.0002C14.0236 28.8383 16.8946 34.645 18.1769 39.0638C19.8487 44.7229 21.425 50.4119 23.0967 56.071C23.6957 57.9792 26.558 57.0807 25.959 55.1725Z" fill="black"/>
<path d="M79.4068 116.583C80.8612 120.214 84.8782 121.993 88.5149 120.222C93.302 117.776 93.7537 111.87 92.6322 107.296C90.7543 98.9763 87.2299 90.7544 84.5587 82.5792C81.6124 73.8614 78.7614 65.1137 75.7852 56.3005C75.2161 54.4878 72.3538 55.3863 72.9229 57.1991C76.2586 67.1572 79.6242 77.2106 82.9599 87.1687C84.6428 92.1954 86.2956 97.1268 87.9784 102.154C88.7871 104.73 89.9719 107.502 90.2081 110.258C90.461 112.065 90.147 113.736 89.3915 115.335C86.2041 118.537 83.8599 118.749 82.3645 115.655C81.6046 113.902 78.7124 114.705 79.4068 116.583Z" fill="black"/>
<path d="M46.9539 10.5349C51.8104 29.3438 57.0784 48.1283 62.7281 66.793C65.508 75.9823 68.3533 85.0462 71.4195 94.1455C74.1806 102.607 76.7153 111.349 80.7167 119.421C81.572 121.144 84.0992 119.512 83.2439 117.789C79.0573 109.461 76.5636 100.182 73.6827 91.3388C70.712 82.2095 67.8666 73.1456 65.0867 63.9564C59.5513 45.9895 54.4929 27.8728 49.8162 9.63638C49.3425 7.79365 46.4802 8.69219 46.9539 10.5349Z" fill="black"/>
<path d="M48.6194 11.1649C53.1392 9.53644 57.7732 8.60578 62.5214 8.37293C64.4839 8.28091 64.3786 5.27443 62.4161 5.36646C57.3816 5.68916 52.4315 6.61426 47.7209 8.30264C45.9381 8.96712 46.7412 11.8594 48.6194 11.1649Z" fill="black"/>
<path d="M61.1425 7.65298C67.8861 23.4588 74.5343 39.2946 81.248 55.0049C82.0079 56.7578 84.8701 55.8593 84.1102 54.1064C77.3666 38.3006 70.7184 22.4648 64.0048 6.75444C63.2449 5.00157 60.3826 5.90011 61.1425 7.65298Z" fill="black"/>
<path d="M74.8797 57.4234C77.742 56.5249 80.6043 55.6263 83.4665 54.7278C85.2793 54.1587 84.3808 51.2964 82.568 51.8655C79.7057 52.764 76.8434 53.6626 73.9812 54.5611C72.1684 55.1302 73.0669 57.9925 74.8797 57.4234Z" fill="black"/>
</svg>
