<svg width="92" height="85" viewBox="0 0 92 85" fill="none" xmlns="http://www.w3.org/2000/svg">
<g clip-path="url(#clip0)">
<path d="M91.6772 84.2944V53.6944L-0.0227509 53.6944V84.2944L91.6772 84.2944Z" fill="black"/>
<path d="M17 63.1C18.4 63.1 19 63.7 19 65.1V67H17.3V65.4C17.3 65 17.2 64.7 16.8 64.7C16.4 64.7 16.3 65 16.3 65.5V65.7C16.3 66.3 16.4 66.7 17 67.5L18.1 68.9C18.9 69.9 19.1 70.5 19.1 71.8V72.2C19.1 73.9 18.4 74.9 16.9 74.9H16.6C15.2 74.9 14.5 74.1 14.5 72.7V70.4H16.2V72.4C16.2 72.9 16.4 73.2 16.8 73.2C17.2 73.2 17.4 72.9 17.4 72.2V71.9C17.4 71.1 17.3 70.8 16.7 70L15.6 68.6C14.9 67.6 14.6 66.9 14.6 65.8V65.4C14.6 63.9 15.4 63.2 16.7 63.2H17V63.1Z" fill="white"/>
<path d="M22.3 74.6999H20.6V63.2H22.3V67.8H23.5V63.2H25.2V74.6999H23.5V69.6999H22.3V74.6999Z" fill="white"/>
<path d="M29.5 72.5H28.2L28 74.6999H26.4L27.8 63.2H29.9L31.4 74.6999H29.7L29.5 72.5ZM28.4 70.8H29.3L28.8 66.5999L28.4 70.8Z" fill="white"/>
<path d="M34.3 74.6999H32.6V63.2H35.4C36.6 63.2 37.1 63.7 37.1 65V67C37.1 68 36.7 68.3 36.3 68.5C36.7 68.7 37.1 68.9999 37.1 69.6999V73.6999C37.1 74.1999 37.2 74.4 37.3 74.5V74.5999H35.6C35.5 74.4999 35.4 74.2999 35.4 73.6999V70.3C35.4 69.8 35.3 69.5999 34.8 69.5999H34.4V74.6999H34.3ZM34.3 67.9H34.8C35.3 67.9 35.4 67.5999 35.4 67.0999V65.5C35.4 65 35.3 64.8 34.8 64.8H34.3V67.9Z" fill="white"/>
<path d="M42.5999 63.2V64.9H40.4V67.9H42.0999V69.5999H40.4V73H42.7V74.6999H38.7V63.2H42.5999Z" fill="white"/>
<path d="M49.2 72.5H47.9L47.7 74.6999H46.1L47.5 63.2H49.6L51.1 74.6999H49.4L49.2 72.5ZM48.1 70.8H49L48.5 66.5999L48.1 70.8Z" fill="white"/>
<path d="M54.7999 63.2H57L57.7999 69.3L58.5999 63.2H60.7V74.6999H59.0999V67.3L58.0999 74.6999H57.4L56.2999 67.3V74.6999H54.7V63.2H54.7999Z" fill="white"/>
<path d="M66.3 63.2V64.9H64.1V67.9H65.8V69.5999H64.1V73H66.4V74.6999H62.4V63.2H66.3Z" fill="white"/>
<path d="M70.6 72.5H69.3L69.1 74.6999H67.5L68.9 63.2H71L72.5 74.6999H70.8L70.6 72.5ZM69.5 70.8H70.4L69.9 66.5999L69.5 70.8Z" fill="white"/>
<path d="M75.4 63.2V72.9H77.5V74.6999H73.6V63.2H75.4Z" fill="white"/>
<path d="M91.7 0H0V53.7H91.7V0Z" fill="white"/>
<path d="M8.40002 8.40002H18.9V11.4H11.8V25H17.8V28H11.8V45.5H8.40002V8.40002Z" fill="black"/>
<path d="M32.7 13.5V40.2C32.7 43.9 30.3 45.3 26.6 45.3H20.4V8.29999H26.6C30.3 8.39999 32.7 9.79999 32.7 13.5ZM27 11.3H23.8V42.4H27C28.3 42.4 29.2 41.9 29.2 40.2V13.5C29.3 11.8 28.4 11.3 27 11.3Z" fill="black"/>
<path d="M34.7 19.9L34.8 13.1C34.8 9.99999 37 8.29999 40.6 8.29999H47V45.3H40.7C37 45.3 34.7 43.6 34.7 40.5L34.6 27.5C34.6 25.6 35.3 24 37.4 23.6C35.5 23.5 34.7 21.7 34.7 19.9ZM43.5 11.3H40.1C39 11.3 38.2 11.9 38.2 13.2L38.1 20.3C38.1 21.6 38.8 22.2 40 22.2H43.4L43.5 11.3ZM37.4 27.4L37.5 40.6C37.5 41.9 38.2 42.5 39.4 42.5H43.6L43.5 25.5H39.3C38.1 25.5 37.4 26.1 37.4 27.4Z" fill="black"/>
<path d="M61.3 40.2C61.3 43.9 58.9 45.3 55.2 45.3H55.1C51.4 45.3 49 43.9 49 40.2V13.2C49 9.59998 51.4 8.09998 55.1 8.09998H55.2C58.9 8.09998 61.3 9.59998 61.3 13.2V17.6H57.9V13.8C57.9 12.1 56.5 11.6 55.2 11.6C53.9 11.6 52.5 12.1 52.5 13.8V39.6C52.5 41.3 53.9 41.8 55.2 41.8C56.5 41.8 57.9 41.3 57.9 39.6V35.2H61.3V40.2Z" fill="black"/>
<path d="M71.6 45.4L68.8 27L67 32.4V45.4H63.6V8.40002H67V23.1L72.2 8.40002H75.8L70.9 22.6L75.4 45.4H71.6Z" fill="black"/>
<path d="M82.5 9.00001C82 8.50001 81.3 8.20001 80.5 8.20001C79.7 8.20001 79.1 8.50001 78.5 9.00001C78 9.50001 77.7 10.2 77.7 11C77.7 11.8 78 12.4 78.5 13C79 13.5 79.7 13.8 80.5 13.8C81.3 13.8 81.9 13.5 82.5 13C83 12.5 83.3 11.8 83.3 11C83.3 10.2 83 9.60001 82.5 9.00001ZM80.5 13.2C79.9 13.2 79.4 13 78.9 12.5C78.5 12.1 78.3 11.5 78.3 10.9C78.3 10.3 78.5 9.80001 79 9.30001C79.4 8.90001 80 8.60001 80.6 8.60001C81.2 8.60001 81.7 8.80001 82.2 9.30001C82.6 9.70001 82.9 10.3 82.9 10.9C82.9 11.5 82.7 12.1 82.2 12.5C81.7 13 81.1 13.2 80.5 13.2Z" fill="black"/>
<path d="M81.6 12.1C81.6 12 81.6 12 81.6 11.9V11.7C81.6 11.6 81.5 11.4 81.4 11.3C81.3 11.2 81.3 11.1 81.2 11.1C81.3 11.1 81.3 11.1 81.3 11C81.5 10.9 81.6 10.7 81.6 10.4C81.6 10 81.4 9.80004 81.2 9.70004C81 9.60004 80.8 9.60004 80.5 9.60004H79.5V12.3H80.1V11.3H80.4C80.7 11.3 80.8 11.3 80.9 11.4C81 11.5 81.1 11.7 81.1 11.9V12.1V12.2V12.3H81.7L81.6 12.2C81.7 12.2 81.6 12.2 81.6 12.1ZM80.1 10.1H80.4C80.6 10.1 80.8 10.1 80.9 10.2C81 10.2 81 10.4 81 10.5C81 10.7 80.9 10.8 80.8 10.8C80.7 10.8 80.6 10.9 80.4 10.9H80.1V10.1Z" fill="black"/>
</g>
<defs>
<clipPath id="clip0">
<rect width="91.7" height="84.3" fill="white"/>
</clipPath>
</defs>
</svg>
