<svg width="92" height="187" viewBox="0 0 92 187" fill="none" xmlns="http://www.w3.org/2000/svg">
<g clip-path="url(#clip0)">
<path d="M91.572 156.254L91.572 -0.0463867L-0.028038 -0.0463867L-0.028038 156.254L91.572 156.254Z" fill="white"/>
<path d="M77.4 14.3V32.2H72.4V20.1H49.1V30.3H44.1V20.1H14.3V14.2H77.4V14.3Z" fill="black"/>
<path d="M68.5999 55.8H23C16.7 55.8 14.2 51.7 14.2 45.4V34.8H77.3V45.4C77.4 51.6 74.8999 55.8 68.5999 55.8ZM72.3 46.1V40.6H19.3V46.1C19.3 48.3 20.1 49.9 23.1 49.9H68.5C71.5 49.9 72.3 48.4 72.3 46.1Z" fill="black"/>
<path d="M57.6 59.2L69.1 59.3C74.3 59.3 77.3 63 77.3 69.2V80H14.3V69.3C14.3 63 17.3 59 22.5 59L44.6 58.9C47.8 58.9 50.6 60.1 51.2 63.8C51.6 60.5 54.7 59.2 57.6 59.2ZM72.4 74.2V68.4C72.4 66.4 71.4 65.2 69.2 65.2L57.1 65C54.9 65 53.9 66.2 53.9 68.2V74L72.4 74.2ZM44.9 63.8L22.4 63.9C20.2 63.9 19.2 65.1 19.2 67.1V74.2L48.1 74.1V67C48.1 65 47.1 63.8 44.9 63.8Z" fill="black"/>
<path d="M23 104.6C16.6 104.6 14.2 100.5 14.2 94.2V94C14.2 87.7 16.5 83.6 23 83.6H69C75.2 83.6 77.8 87.7 77.8 94V94.1C77.8 100.4 75.2 104.5 69 104.5H61.4V98.6H68C70.9 98.6 71.8 96.2 71.8 94C71.8 91.8 70.9 89.4 68 89.4H24.1C21.2 89.4 20.3 91.8 20.3 94C20.3 96.2 21.2 98.6 24.1 98.6H31.6V104.5H23V104.6Z" fill="black"/>
<path d="M14.2 122.2L45.6 117.3L36.4 114.2H14.3V108.3H77.4V114.2H52.2L77.3 123V129.2L53 120.9L14.1 128.5V122.2H14.2Z" fill="black"/>
<path d="M76.3 140.7C77.2 139.8 77.7 138.6 77.7 137.3C77.7 136 77.2 134.9 76.3 133.9C75.4 133 74.2 132.5 72.9 132.5C71.6 132.5 70.4 133 69.5 133.9C68.6 134.8 68.1 136 68.1 137.3C68.1 138.6 68.6 139.7 69.5 140.7C70.4 141.6 71.6 142.1 72.9 142.1C74.2 142.1 75.3 141.6 76.3 140.7ZM69.1 137.3C69.1 136.2 69.5 135.3 70.2 134.6C70.9 133.9 71.9 133.5 72.9 133.5C73.9 133.5 74.9 133.9 75.6 134.6C76.3 135.3 76.7 136.2 76.7 137.3C76.7 138.3 76.3 139.3 75.6 140C74.9 140.7 74 141.1 72.9 141.1C71.8 141.1 70.9 140.7 70.2 140C69.4 139.3 69.1 138.4 69.1 137.3Z" fill="black"/>
<path d="M71 139.2C71.1 139.2 71.2 139.2 71.3 139.2H71.6C71.8 139.2 72.1 139.1 72.4 138.9C72.5 138.8 72.7 138.7 72.7 138.5C72.7 138.6 72.8 138.7 72.8 138.7C73 139 73.3 139.2 73.8 139.2C74.4 139.2 74.8 138.9 75 138.4C75.1 138.1 75.2 137.7 75.2 137.1V135.4H70.5V136.4H72.2V136.9C72.2 137.4 72.1 137.6 72.1 137.7C72 137.9 71.7 138 71.2 138H70.8H70.7L70.5 138.1V139.1L70.7 139C70.8 139.2 70.9 139.2 71 139.2ZM74.4 136.6V137.1C74.4 137.5 74.4 137.8 74.3 138C74.2 138.2 74 138.2 73.8 138.2C73.5 138.2 73.3 138.1 73.2 137.8C73.1 137.7 73.1 137.4 73.1 137.1V136.5H74.4V136.6Z" fill="black"/>
<path d="M91.67 186.887V156.287L-0.030014 156.287V186.887L91.67 186.887Z" fill="black"/>
<path d="M17 165.7C18.4 165.7 19 166.3 19 167.7V169.6H17.3V168C17.3 167.6 17.2 167.3 16.8 167.3C16.4 167.3 16.3 167.6 16.3 168.1V168.3C16.3 168.9 16.4 169.3 17 170.1L18.1 171.5C18.9 172.5 19.1 173.1 19.1 174.4V174.8C19.1 176.5 18.4 177.5 16.9 177.5H16.6C15.2 177.5 14.5 176.7 14.5 175.3V173H16.2V175C16.2 175.5 16.4 175.8 16.8 175.8C17.2 175.8 17.4 175.5 17.4 174.8V174.5C17.4 173.7 17.3 173.4 16.7 172.6L15.6 171.2C14.9 170.2 14.6 169.5 14.6 168.4V168C14.6 166.5 15.4 165.8 16.7 165.8H17V165.7Z" fill="white"/>
<path d="M22.3 177.3H20.6V165.8H22.3V170.4H23.5V165.8H25.2V177.3H23.5V172.3H22.3V177.3Z" fill="white"/>
<path d="M29.5 175.1H28.2L28 177.3H26.4L27.8 165.8H29.9L31.4 177.3H29.7L29.5 175.1ZM28.4 173.4H29.3L28.8 169.2L28.4 173.4Z" fill="white"/>
<path d="M34.3 177.3H32.6V165.8H35.4C36.6 165.8 37.1 166.3 37.1 167.6V169.6C37.1 170.6 36.7 170.9 36.3 171.1C36.7 171.3 37.1 171.6 37.1 172.3V176.3C37.1 176.8 37.2 177 37.3 177.1V177.2H35.6C35.5 177.1 35.4 176.9 35.4 176.3V172.9C35.4 172.4 35.3 172.2 34.8 172.2H34.4V177.3H34.3ZM34.3 170.5H34.8C35.3 170.5 35.4 170.2 35.4 169.7V168.1C35.4 167.6 35.3 167.4 34.8 167.4H34.3V170.5Z" fill="white"/>
<path d="M42.6 165.8V167.5H40.4V170.5H42.1V172.2H40.4V175.5H42.7V177.2H38.7V165.7H42.6V165.8Z" fill="white"/>
<path d="M49.2 175.1H47.9L47.7 177.3H46.1L47.5 165.8H49.6L51.1 177.3H49.4L49.2 175.1ZM48.1 173.4H49L48.5 169.2L48.1 173.4Z" fill="white"/>
<path d="M54.8 165.8H57L57.8 171.9L58.6 165.8H60.7V177.3H59.1V169.9L58.1 177.3H57.4L56.3 169.9V177.3H54.7V165.8H54.8Z" fill="white"/>
<path d="M66.3 165.8V167.5H64.1V170.5H65.8V172.2H64.1V175.5H66.4V177.2H62.4V165.7H66.3V165.8Z" fill="white"/>
<path d="M70.6 175.1H69.3L69.1 177.3H67.5L68.9 165.8H71L72.5 177.3H70.8L70.6 175.1ZM69.5 173.4H70.4L69.9 169.2L69.5 173.4Z" fill="white"/>
<path d="M75.4 165.8V175.5H77.5V177.3H73.6V165.8H75.4Z" fill="white"/>
</g>
<defs>
<clipPath id="clip0">
<rect width="91.7" height="186.9" fill="white"/>
</clipPath>
</defs>
</svg>
