<svg width="31" height="124" viewBox="0 0 31 124" fill="none" xmlns="http://www.w3.org/2000/svg">
<g clip-path="url(#clip0)">
<path d="M19.6243 117.02C17.7414 97.9815 15.7587 78.9469 16.1738 59.8137C16.5685 40.181 19.8771 20.8289 25.0007 1.8026C25.5263 -0.0205037 22.5959 -0.700818 22.0703 1.12229C17.0343 19.8447 13.7175 38.997 13.2106 58.3341C12.716 77.9709 14.6194 97.5092 16.6228 117.043C16.8047 119.038 19.8022 118.915 19.6243 117.02Z" fill="black"/>
<path d="M20.3084 121.496C22.4437 115.003 24.2752 108.422 25.5989 101.662C26.0205 99.7432 23.0901 99.0629 22.6685 100.982C21.3448 107.742 19.5133 114.323 17.274 120.72C16.7524 122.643 19.6787 123.223 20.3084 121.496Z" fill="black"/>
<path d="M19.6922 121.121C16.5115 114.346 12.6478 107.999 7.90539 102.189C6.74476 100.735 4.20851 102.341 5.36914 103.794C9.90353 109.413 13.7549 115.46 16.8275 122.039C17.7007 123.805 20.5654 122.887 19.6922 121.121Z" fill="black"/>
</g>
<defs>
<clipPath id="clip0">
<rect width="24.2" height="122.6" fill="white" transform="translate(30.0576 122.497) rotate(177.648)"/>
</clipPath>
</defs>
</svg>
