<svg width="86" height="114" viewBox="0 0 86 114" fill="none" xmlns="http://www.w3.org/2000/svg">
<g clip-path="url(#clip0)">
<path d="M83.0142 89.6133C76.1814 64.1121 69.086 38.787 61.5785 13.4721C60.4442 9.73934 59.569 4.69019 55.5464 2.89597C51.8663 1.2147 47.1631 3.34306 43.5268 4.45071C30.251 8.21956 16.9752 11.9884 3.7261 15.8537C2.56938 16.173 2.47653 17.3398 2.90883 18.1541C2.57648 18.4533 2.39374 18.9188 2.45702 19.5237C8.9616 49.4727 16.8423 79.1455 26.0725 108.446C26.0991 108.542 26.0991 108.542 26.1258 108.638C26.5551 111.321 29.6965 111.802 32.5451 111.223C40.8983 109.54 49.1781 106.839 57.4946 104.647C61.4468 103.556 65.5219 102.534 69.4741 101.443C72.9443 100.485 77.0561 99.9724 80.34 98.3396C81.3471 97.8541 82.178 97.106 82.8858 96.2881C83.8066 96.2414 84.6641 95.5897 84.3448 94.433C84.2915 94.2402 84.2117 93.951 84.1585 93.7582C84.5139 92.4152 84.3075 90.9161 83.0142 89.6133ZM72.4617 97.6099C70.6302 98.1155 68.7023 98.6477 66.8442 99.057C62.8921 100.148 58.8169 101.169 54.8648 102.26C50.9126 103.352 46.8375 104.373 42.8853 105.464C41.0538 105.97 39.2223 106.475 37.3642 106.884C36.8823 107.018 28.8816 109.226 29.2801 107.664C29.4097 107.006 29.127 106.358 28.635 106.078C19.6608 77.33 11.9131 48.1391 5.47185 18.7952C5.44523 18.6988 5.41862 18.6024 5.39201 18.506C16.2579 15.4024 27.1238 12.2989 37.8933 9.22193C43.072 7.68849 52.2223 2.88001 56.6145 7.8919C58.4099 9.88601 58.9161 14.7258 59.7044 17.2054C60.5028 20.0973 61.3709 22.8661 62.1693 25.7579C68.3397 46.9811 74.2476 68.3806 80.0325 89.7103C79.7533 90.2023 79.8166 90.8073 80.4582 91.2526C80.4582 91.2526 80.4582 91.2526 80.4849 91.349C80.7244 92.2165 80.9373 92.9877 81.1768 93.8552C79.5783 95.9564 73.0401 97.4502 72.4617 97.6099Z" fill="black"/>
<path d="M47.9314 86.5388C47.2666 87.1372 47.3565 87.8386 47.832 88.4335C46.1702 89.9297 45.4062 92.4229 46.1679 94.8062C47.6114 99.2835 53.0367 100.898 56.9853 98.6667C60.9339 96.4354 61.7672 90.8108 59.0374 87.3111C56.2112 83.8379 51.2383 83.8622 47.9314 86.5388ZM56.4661 95.2828C54.7612 96.9984 51.5867 97.1486 49.8445 95.3473C47.926 93.2834 48.8959 89.281 52.1437 90.1479C53.7327 90.6429 54.5068 88.5618 53.5394 87.6878C56.8735 88.1159 59.3508 92.2041 56.4661 95.2828Z" fill="black"/>
<path d="M68.824 72.7827L68.7276 72.8094C63.3254 53.2414 57.8001 33.6036 52.3979 14.0356C52.2914 13.6501 51.9922 13.3177 51.7462 13.1781C51.3937 12.653 50.9017 12.3739 50.1305 12.5868C37.9849 15.9399 26.1485 20.0375 14.4719 24.7136C13.4346 23.9625 11.5865 24.7839 12.1087 26.2996C18.0196 45.8309 23.8074 65.2925 29.7182 84.8238C29.1599 85.8078 29.9281 87.4631 31.374 87.0639C44.0348 82.9461 56.8983 79.1873 69.7454 75.7443C71.4538 75.1689 70.6555 72.2771 68.824 72.7827ZM32.3539 83.4737C26.779 64.7833 21.1077 46.1195 15.5328 27.4291C26.7275 22.8862 38.1085 19.018 49.7456 15.7015C55.068 34.9803 60.4868 54.2325 65.8092 73.5113C54.5577 76.7213 43.4292 80.0011 32.3539 83.4737Z" fill="black"/>
<path d="M45.838 28.6065C45.061 32.5557 44.0645 36.4618 43.1644 40.3412C41.5689 40.5742 39.7209 41.3956 38.5907 41.8113C35.2436 42.8392 31.8266 43.99 28.5327 45.2106C26.7544 45.909 27.5261 48.7044 29.2346 48.129C30.4387 51.7388 31.6161 55.2521 32.9165 58.8352C33.2524 59.6762 33.9639 59.9985 34.7616 59.882C40.223 58.9967 45.4815 57.7524 50.7033 55.9996C52.0262 55.5306 51.9594 53.7855 51.0717 53.2006C49.9842 50.3886 48.8966 47.5766 47.7127 44.7913C47.3236 43.7575 46.941 41.9958 46.0432 40.9988C47.0397 37.0927 47.9398 33.2133 48.7168 29.2641C49.1586 27.4823 46.2265 26.6319 45.838 28.6065ZM45.8552 48.2088C46.5802 50.0835 47.2786 51.8617 48.0037 53.7364C43.789 55.0037 39.6174 56.0516 35.366 56.8104C34.2684 53.5862 33.1974 50.4584 32.0998 47.2343L32.0732 47.1379C33.2033 46.7221 34.2371 46.333 35.3938 46.0136C37.3914 45.3584 40.0538 44.1047 42.1845 43.9314C42.2809 43.9048 42.2809 43.9048 42.3773 43.8782C41.8392 45.6866 41.424 47.5648 40.8859 49.3732C39.7357 48.9646 38.5854 48.556 37.4618 48.2437C35.6268 47.6092 34.8728 50.5146 36.7078 51.1491C38.3235 51.7405 39.9125 52.2355 41.5281 52.8269C42.3359 53.1225 43.097 52.4975 43.4193 51.786C44.0007 49.7582 44.582 47.7304 45.0669 45.7292C45.2266 46.3075 45.4927 47.2715 45.8552 48.2088Z" fill="black"/>
</g>
<defs>
<clipPath id="clip0">
<rect width="61.1" height="100.9" fill="white" transform="translate(0 16.2599) rotate(-15.4335)"/>
</clipPath>
</defs>
</svg>
