<svg viewBox="0 0 402 127" fill="none" xmlns="http://www.w3.org/2000/svg" preserveAspectRatio="none">
<mask id="mask0" mask-type="alpha" maskUnits="userSpaceOnUse" x="0" y="0" width="402" height="124">
<path fill-rule="evenodd" clip-rule="evenodd" d="M0.000488281 0.00012207H401.834V123.445H0.000488281V0.00012207Z" fill="white"/>
</mask>
<g mask="url(#mask0)">
<path fill-rule="evenodd" clip-rule="evenodd" d="M5.89745 123.445H119.752H230.785C230.785 123.445 304.949 119.066 332.321 119.066C347.258 119.066 400.022 123.445 400.022 123.445C401.024 123.445 401.834 121.769 401.834 119.701V80.2192V6.48298C401.834 2.90158 400.43 0 398.697 0H357.265H303.4H177.818C177.818 0 134.088 3.27212 118.668 3.27212C101.406 3.27212 47.0887 0 47.0887 0H3.78261C2.85136 0 2.09653 1.55986 2.09653 3.48428C2.09653 3.48428 0.000488281 29.4192 0.000488281 46.3251C0.000488281 72.6007 2.09653 115.591 2.09653 115.591C2.09653 119.928 3.79852 123.445 5.89745 123.445Z" fill="black"/>
</g>
</svg>
