<svg width="493" height="207" viewBox="0 0 493 207" fill="none" xmlns="http://www.w3.org/2000/svg">
<mask id="mask0" mask-type="alpha" maskUnits="userSpaceOnUse" x="0" y="0" width="493" height="122">
<path fill-rule="evenodd" clip-rule="evenodd" d="M0.000488281 0.000106812H492.797V121.501H0.000488281V0.000106812Z" fill="white"/>
</mask>
<g mask="url(#mask0)">
<path fill-rule="evenodd" clip-rule="evenodd" d="M7.23234 121.501H146.86H283.028C283.028 121.501 373.979 117.191 407.547 117.191C425.866 117.191 490.574 121.501 490.574 121.501C491.803 121.501 492.797 119.851 492.797 117.816V78.9559V6.38088C492.797 2.85588 491.075 0 488.949 0H438.138H372.08H218.071C218.071 0 164.441 3.22059 145.53 3.22059C124.361 3.22059 57.748 0 57.748 0H4.63877C3.49671 0 2.571 1.53529 2.571 3.42941C2.571 3.42941 0.000488281 28.9559 0.000488281 45.5956C0.000488281 71.4574 2.571 113.771 2.571 113.771C2.571 118.04 4.65827 121.501 7.23234 121.501" fill="black"/>
</g>
<mask id="mask1" mask-type="alpha" maskUnits="userSpaceOnUse" x="107" y="100" width="287" height="107">
<path fill-rule="evenodd" clip-rule="evenodd" d="M394 207L107.119 207L107.119 100.079L394 100.079L394 207Z" fill="white"/>
</mask>
<g mask="url(#mask1)">
<path fill-rule="evenodd" clip-rule="evenodd" d="M389.79 100.079L308.505 100.079L229.236 100.079C229.236 100.079 176.288 103.872 156.746 103.872C146.083 103.872 108.412 100.079 108.412 100.079C107.697 100.079 107.119 101.531 107.119 103.322L107.119 137.519L107.119 201.385C107.119 204.487 108.121 207 109.358 207L138.938 207L177.394 207L267.051 207C267.051 207 298.271 204.166 309.28 204.166C321.604 204.166 360.382 207 360.382 207L391.3 207C391.965 207 392.504 205.649 392.504 203.982C392.504 203.982 394 181.519 394 166.876C394 144.118 392.504 106.882 392.504 106.882C392.504 103.125 391.288 100.079 389.79 100.079" fill="black"/>
</g>
</svg>
