<svg width="453" height="18" viewBox="0 0 453 18" fill="none" xmlns="http://www.w3.org/2000/svg">
<g clip-path="url(#clip0)">
<path d="M4.26135 16.4621C7.366 14.2608 12.9714 13.9789 15.9755 16.5084C16.9763 17.3173 19.4548 17.592 20.2641 16.45C21.88 13.9605 41.699 15.5416 44.5031 15.5034C47.6371 15.4608 50.6048 15.3176 53.7388 15.275C60.9938 14.9707 68.0837 14.6686 75.3387 14.3643C99.9034 13.1048 124.305 11.9504 148.871 10.7937C179.538 9.45126 210.205 8.00599 241.057 8.10038C272.734 8.18356 304.401 7.54717 336.06 6.29402C373.821 4.85506 411.746 3.41385 449.694 3.61735C452.83 3.67751 452.788 0.593687 449.652 0.533523C380.356 0.139566 311.63 5.28977 242.501 5.09915C185.25 4.84979 128.055 8.71219 71.0095 11.4416C63.5896 11.7482 56.0062 12.1598 48.4199 12.3658C44.4612 12.4196 40.3389 12.5785 36.3787 12.5296C32.5835 12.4784 29.4383 11.6986 25.8052 11.4396C21.5124 11.1896 17.7354 12.4747 15.9545 14.9665C17.439 14.9463 18.7586 14.9283 20.2431 14.9081C15.4037 10.8614 6.32457 10.4709 0.768069 14.3505C-1.35668 15.8188 2.13659 17.9304 4.26135 16.4621Z" fill="white"/>
</g>
<defs>
<clipPath id="clip0">
<rect width="452" height="11" fill="white" transform="translate(0 6.44434) rotate(-0.779326)"/>
</clipPath>
</defs>
</svg>
