<svg width="16" height="26" viewBox="0 0 16 26" fill="none" xmlns="http://www.w3.org/2000/svg">
<g clip-path="url(#clip0)">
<path d="M6.95949 1.31779C9.25545 4.86845 11.6232 8.47638 13.9909 12.027C14.6366 13.0006 16.5021 12.1416 15.8564 11.168C13.4886 7.56008 11.1209 4.00942 8.75321 0.458762C8.10747 -0.572075 6.31375 0.344224 6.95949 1.31779Z" fill="black"/>
<path d="M13.9913 11.1101C10.6191 11.1101 7.31861 11.1101 3.94641 11.1101C2.58318 11.1101 2.58318 12.8282 3.94641 12.8282C7.31861 12.8282 10.6191 12.8282 13.9913 12.8282C15.3545 12.8282 15.3545 11.1101 13.9913 11.1101Z" fill="black"/>
<path d="M6.38541 1.08816C4.66344 4.00886 2.86972 6.92956 1.14774 9.90754C0.573753 10.8811 2.43922 11.7974 3.01321 10.7666C4.73519 7.84586 6.52891 4.92516 8.25088 1.94719C8.89662 0.973619 7.03115 0.0573196 6.38541 1.08816Z" fill="black"/>
<path d="M10.4039 5.26864C9.39937 4.69595 8.46663 4.12326 7.46215 3.49331C6.67291 2.97789 5.45318 4.00872 6.02717 4.69595C6.74466 5.61225 7.5339 6.52855 8.25139 7.44485C8.96887 8.36115 10.8343 7.50212 10.1169 6.58582C9.39937 5.66952 8.61013 4.75322 7.89264 3.83692C7.3904 4.2378 6.88816 4.63868 6.38592 5.03956C7.3904 5.61225 8.32313 6.18494 9.32762 6.81489C9.75811 7.10123 10.5473 6.87216 10.8343 6.52855C11.1213 6.01313 10.9061 5.55498 10.4039 5.26864Z" fill="black"/>
<path d="M10.188 7.445C9.54229 7.04412 8.89655 6.7005 8.25081 6.29962C7.82032 6.01328 7.03108 6.24235 6.74409 6.58597C6.45709 7.04412 6.67234 7.50227 7.10283 7.78861C7.74857 8.18949 8.39431 8.53311 9.04005 8.93399C9.61404 9.16306 10.3315 8.93399 10.6185 8.59037C10.9055 8.13222 10.6903 7.67407 10.188 7.445Z" fill="black"/>
<path d="M12.3404 8.01763C9.82915 7.21586 7.2462 6.47137 4.73498 5.66961C3.4435 5.26873 2.86951 6.92952 4.16099 7.3304C6.6722 8.13216 9.25516 8.87666 11.7664 9.67842C13.1296 10.0793 13.6318 8.41851 12.3404 8.01763Z" fill="black"/>
<path d="M12.8423 9.62118C10.1159 8.81941 7.46117 7.96038 4.73471 7.15862C3.44323 6.75774 2.86924 8.41853 4.16072 8.81941C6.88718 9.62118 9.54189 10.4802 12.2683 11.282C13.5598 11.6829 14.1338 10.0221 12.8423 9.62118Z" fill="black"/>
<path d="M8.75297 9.50649C7.031 9.33469 5.38077 9.16288 3.6588 8.99107C2.29557 8.87654 2.29557 10.5946 3.6588 10.7091C5.38077 10.8809 7.031 11.0527 8.75297 11.2246C10.1162 11.3964 10.1162 9.6783 8.75297 9.50649Z" fill="black"/>
<path d="M8.96791 11.2248C9.18315 15.8063 8.89616 20.3878 9.1114 24.9693C9.18315 26.0574 11.3356 26.0574 11.2639 24.9693C11.0486 20.3878 11.3356 15.8063 11.1204 11.2248C11.0486 10.1367 8.89616 10.1367 8.96791 11.2248Z" fill="black"/>
<path d="M6.17078 10.8236C6.17078 15.5197 6.17078 20.2157 6.17078 24.969C6.17078 26.0571 8.32324 26.0571 8.32324 24.969C8.32324 20.273 8.32324 15.577 8.32324 10.8236C8.32324 9.73554 6.17078 9.73554 6.17078 10.8236Z" fill="black"/>
<path d="M7.60535 15.4052C7.60535 18.6695 7.60535 21.9338 7.60535 25.1981C7.60535 26.2862 9.75781 26.2862 9.75781 25.1981C9.75781 21.9338 9.75781 18.6695 9.75781 15.4052C9.75781 14.3171 7.60535 14.3171 7.60535 15.4052Z" fill="black"/>
<path d="M7.10279 11.5683C7.24628 14.8899 7.38978 18.2114 7.53328 21.4758C7.60503 22.5639 9.75749 22.5639 9.68575 21.4758C9.54225 18.2114 9.39875 14.8899 9.25525 11.5683C9.1835 10.4802 7.03104 10.4802 7.10279 11.5683Z" fill="black"/>
<path d="M4.51957 11.3963C3.37159 11.3963 2.22361 11.339 1.07563 11.339C-0.287602 11.2818 -0.287602 12.9998 1.07563 13.0571C2.22361 13.0571 3.37159 13.1144 4.51957 13.1144C5.8828 13.1716 5.8828 11.4536 4.51957 11.3963Z" fill="black"/>
<path d="M1.72203 9.39211C1.21979 9.9648 0.717549 10.5375 0.215307 11.1102C-0.143437 11.5111 0.143558 12.0837 0.574051 12.3128C1.07629 12.5419 1.72203 12.3701 2.08078 12.0265C2.58302 11.4538 3.08526 10.8811 3.5875 10.3084C3.94625 9.90753 3.65925 9.33484 3.22876 9.10577C2.65477 8.87669 2.08078 9.0485 1.72203 9.39211Z" fill="black"/>
</g>
<defs>
<clipPath id="clip0">
<rect width="26" height="16" fill="white" transform="translate(16) rotate(90)"/>
</clipPath>
</defs>
</svg>
