<svg width="93" height="112" viewBox="0 0 93 112" fill="none" xmlns="http://www.w3.org/2000/svg">
<g clip-path="url(#clip0)">
<path d="M9.88547 77.7169C15.7748 84.7465 23.7559 89.88 32.1378 93.4358C39.3889 96.5775 47.8707 98.9671 55.7315 96.9904L55.8643 96.9418C55.9971 96.8931 55.9971 96.8931 56.1299 96.8445L56.2627 96.7958C56.7031 96.5591 56.9134 96.1055 56.9002 95.6585C59.909 68.7253 63.0794 41.2057 69.7748 14.8796C70.1336 13.3926 68.235 12.7327 67.2767 13.6111C66.8717 13.5335 66.3826 13.6374 65.9908 14.0069C55.8048 23.6134 45.528 33.1778 35.384 42.6935C34.8396 42.4411 34.2598 42.5029 33.7839 43.0539C24.8614 53.0257 17.3063 63.8521 11.0278 75.4909C10.001 75.5659 9.0492 76.6677 9.88547 77.7169ZM34.1682 46.9797C34.5731 47.0573 35.0622 46.9534 35.454 46.5839C45.598 37.0681 55.6999 27.6431 65.8439 18.1274C59.9123 43.044 56.9192 68.9924 54.0458 94.4452C46.7095 96.0037 38.7523 93.196 32.1783 90.258C25.2413 87.1517 18.5857 82.9634 13.4971 77.2972C19.3062 66.4328 26.2106 56.2968 34.1682 46.9797Z" fill="black"/>
<path d="M53.749 104.118C53.9725 104.111 54.1539 104.195 54.3774 104.189C56.2628 104.402 56.7569 101.434 54.8716 101.221C37.414 99.4097 18.373 92.4547 6.91506 78.6545C5.84869 77.3885 3.91212 78.4746 4.12652 79.6763C3.14835 79.8841 2.32933 80.9373 3.20767 81.8957C15.2231 96.3953 34.5074 104.014 52.7526 106.742C54.2817 107.01 54.8929 104.979 53.749 104.118Z" fill="black"/>
<path d="M40.115 52.9338C43.5031 52.5207 46.0706 50.0738 46.733 46.7434C46.7685 46.4292 46.7619 46.2057 46.6646 45.9401C46.4634 45.1854 45.6824 44.4926 44.7042 44.7004C41.5528 45.5539 39.2994 48.0364 38.4977 51.1919C38.2585 52.1832 39.1789 53.0509 40.115 52.9338Z" fill="black"/>
<path d="M54.2023 45.1362C51.803 47.2203 50.5476 50.1655 50.8634 53.288C50.8213 53.3787 50.9121 53.4208 50.9121 53.4208C50.5046 54.775 52.4229 56.1054 53.4589 54.8222C55.5794 52.3884 56.6533 49.3591 56.7359 46.0905C56.8003 45.2386 56.1165 44.8113 55.4881 44.7404C55.1739 44.7049 54.6361 44.676 54.2023 45.1362Z" fill="black"/>
<path d="M54.0097 35.5674C53.8415 35.9303 53.7639 36.3352 53.952 36.6428C53.952 36.6428 53.952 36.6428 53.9099 36.7336C54.0047 38.4309 56.3305 38.4071 56.8287 37.0949C59.1084 35.5065 60.5584 33.0925 61.0591 30.3485C61.4113 28.638 59.0237 28.082 58.302 29.4008C55.8763 30.5908 54.287 32.83 54.0097 35.5674Z" fill="black"/>
</g>
<defs>
<clipPath id="clip0">
<rect width="57.6" height="95.8" fill="white" transform="translate(40.2988) rotate(24.876)"/>
</clipPath>
</defs>
</svg>
